<?xml version="1.0" encoding="utf-8"?>
<svg width="190" height="136" viewBox="0 0 190 136" fill="none" xmlns="http://www.w3.org/2000/svg">
  <defs>
    <linearGradient id="gradient_1" gradientUnits="userSpaceOnUse" x1="33.552" y1="0" x2="33.552" y2="85.242">
      <stop offset="0" stop-color="#5D41CB" />
      <stop offset="1" stop-color="#000000" />
    </linearGradient>
  </defs>
  <g id="Group" transform="translate(4 0)">
    <path id="Path" d="M6.11537 0.120838C6.11537 0.120838 77.9158 -6.84396 65.7059 84.9789L0 85.2424C0 85.2424 12.6081 74.5576 6.11537 0.120838Z" fill="url(#gradient_1)" fill-rule="evenodd" transform="translate(48 0)" />
    <path id="Path" d="M0 0C0 0 44.0666 10.9431 43.6359 64.3777L13.7827 72.4665C13.7827 72.4665 18.8514 38.4012 0 0Z" fill="url(#gradient_1)" fill-rule="evenodd" transform="translate(111 13)" />
    <path id="Path" d="M0 0L151.979 0C151.979 0 144.536 28.4354 130.635 32.4923C116.733 36.5492 19.7806 32.7912 19.7806 32.7912C1.46006 25.3008 0 0 0 0Z" fill="url(#gradient_1)" fill-rule="evenodd" transform="translate(13 90)" />
    <path id="Path" d="M0 19.8418C0 19.8418 3.96235 8.29237 13.5462 5.84164C13.5462 5.84164 9.35359 16.9302 24.5078 16.2133C39.662 15.4964 38.898 2.25262 45.9448 2.25262C45.9448 2.25262 39.4198 18.2184 52.6954 16.9952C65.9709 15.772 66.9194 2.59473 73.9663 2.59473C73.9663 2.59473 71.1272 17.733 80.8832 16.9952C90.6388 16.2573 91.6233 2.40965 99.8957 2.40965C99.8957 2.40965 89.6313 17.101 106.973 16.9952C124.314 16.8894 123.783 -1.18125 129.473 0.0612564C129.473 0.0612564 124.963 17.1507 133.473 16.9952C141.982 16.8397 147.287 1.99317 156.412 2.0097C156.412 2.0097 147.803 18.0911 154.735 18.2991" fill="none" stroke-width="10" stroke="#30A5FF" transform="translate(8.028 106.939)" />
    <path id="Path" d="M0 2.25072L0 8L178.1 8Q178.291 8 178.482 7.98122Q178.673 7.96244 178.861 7.92506Q179.048 7.88767 179.232 7.83205Q179.415 7.77643 179.592 7.7031Q179.769 7.62978 179.938 7.53945Q180.107 7.44912 180.267 7.34267Q180.426 7.23621 180.574 7.11466Q180.722 6.9931 180.858 6.85761Q180.993 6.72212 181.115 6.574Q181.236 6.42588 181.343 6.26656Q181.449 6.10724 181.539 5.93825Q181.63 5.76926 181.703 5.59223Q181.776 5.41521 181.832 5.23184Q181.888 5.04848 181.925 4.86055Q181.962 4.67262 181.981 4.48193Q182 4.29124 182 4.09962L182 3.90041Q182 3.70879 181.981 3.5181Q181.962 3.32741 181.925 3.13948Q181.888 2.95154 181.832 2.76818Q181.776 2.58482 181.703 2.40779Q181.63 2.23076 181.539 2.06177Q181.449 1.89278 181.343 1.73346Q181.236 1.57414 181.115 1.42602Q180.993 1.2779 180.858 1.1424Q180.722 1.00691 180.574 0.885352Q180.426 0.763793 180.267 0.657338Q180.107 0.550882 179.938 0.460556Q179.769 0.370229 179.592 0.296901Q179.415 0.223573 179.232 0.16795Q179.048 0.112328 178.861 0.0749453Q178.673 0.0375631 178.482 0.0187815Q178.291 0 178.1 0L1.02539 0Q0.924398 0 0.825347 0.0197026Q0.726295 0.0394052 0.632991 0.0780532Q0.539686 0.116701 0.455714 0.172809Q0.371742 0.228918 0.30033 0.30033Q0.228918 0.371742 0.172809 0.455714Q0.116701 0.539686 0.0780532 0.632991Q0.0394052 0.726295 0.0197026 0.825347Q0 0.924398 0 1.02539L0 2.25072Z" fill="#30A5FF" fill-rule="evenodd" stroke-width="8" stroke="#30A5FF" transform="translate(0 124)" />
  </g>
</svg>